<?xml version="1.0" standalone="no"?>
<!DOCTYPE svg PUBLIC "-//W3C//DTD SVG 20010904//EN"
 "http://www.w3.org/TR/2001/REC-SVG-20010904/DTD/svg10.dtd">
<svg version="1.0" xmlns="http://www.w3.org/2000/svg"
 width="161.000000pt" height="161.000000pt" viewBox="0 0 161.000000 161.000000"
 preserveAspectRatio="xMidYMid meet">
<metadata>
Created by potrace 1.11, written by Peter Selinger 2001-2013
</metadata>
<g transform="translate(0.000000,161.000000) scale(0.100000,-0.100000)"
fill="#000000" stroke="none">
<path d="M793 1361 c-14 -11 -43 -72 -30 -65 6 4 0 -5 -15 -20 -15 -16 -25
-32 -22 -37 3 -5 1 -9 -5 -9 -8 0 -22 -30 -24 -50 -2 -12 -23 -27 -32 -22 -5
3 -7 2 -3 -3 4 -4 2 -17 -4 -29 -7 -11 -11 -24 -10 -28 1 -5 -3 -8 -9 -8 -5 0
-7 -5 -4 -10 3 -6 -1 -13 -9 -16 -9 -3 -16 -13 -16 -21 0 -11 -7 -14 -21 -10
-15 4 -19 2 -15 -8 3 -8 0 -17 -6 -21 -6 -4 -8 -3 -5 3 4 6 0 16 -8 23 -8 7
-12 16 -9 21 3 5 0 9 -5 9 -6 0 -11 6 -11 14 0 23 -39 30 -60 11 -11 -10 -17
-22 -14 -26 3 -5 1 -9 -4 -9 -9 0 -37 -50 -34 -62 1 -5 -2 -8 -8 -8 -5 0 -10
-6 -10 -14 0 -7 -7 -19 -15 -26 -8 -7 -12 -16 -9 -21 3 -5 1 -9 -5 -9 -10 0
-27 -38 -23 -52 1 -4 -6 -4 -15 -1 -10 4 -14 2 -9 -5 3 -6 2 -13 -4 -17 -6 -4
-8 -10 -5 -15 3 -5 -3 -13 -12 -19 -10 -5 -17 -11 -16 -13 5 -7 -10 -48 -18
-48 -5 0 -9 -8 -9 -17 -1 -21 -24 -55 -33 -48 -4 3 -5 2 -2 -2 3 -3 0 -12 -6
-20 -6 -7 -8 -13 -5 -13 4 0 0 -7 -9 -16 -9 -9 -14 -23 -11 -31 3 -8 1 -11 -5
-8 -5 4 -15 -7 -22 -24 -6 -17 -15 -31 -20 -31 -4 0 -6 -4 -2 -9 3 -6 0 -13
-8 -18 -12 -8 -34 -49 -35 -67 0 -5 -5 -12 -10 -15 -12 -8 -47 -74 -44 -83 1
-5 -2 -8 -7 -8 -5 0 -12 -11 -15 -25 -4 -14 -10 -24 -14 -21 -5 3 -8 -6 -8
-20 l0 -24 802 0 802 0 0 24 c0 14 -9 34 -20 45 -10 12 -16 21 -12 21 3 0 1 7
-6 15 -7 8 -9 15 -4 15 4 0 -1 7 -12 16 -10 8 -12 13 -4 9 9 -4 8 -1 -3 8 -10
9 -19 19 -20 24 -1 4 -5 7 -9 6 -4 -2 -5 4 -2 12 4 8 -1 17 -9 21 -9 3 -13 12
-10 20 3 8 0 14 -7 14 -6 0 -8 5 -5 10 3 6 -1 13 -10 16 -9 4 -14 12 -11 19 3
8 -2 16 -10 19 -8 3 -13 9 -12 13 3 10 -47 89 -62 98 -6 3 -8 11 -5 16 4 5 -3
23 -15 39 -12 17 -18 30 -15 30 4 0 -1 7 -9 16 -9 8 -14 19 -11 24 3 4 -2 10
-10 14 -8 3 -12 12 -9 21 4 10 0 15 -10 15 -9 0 -16 3 -15 8 2 15 -14 52 -22
52 -5 0 -9 5 -9 12 0 6 -8 20 -17 31 -13 15 -14 19 -3 13 13 -7 13 -6 0 6 -8
7 -22 27 -30 43 -8 17 -18 32 -22 35 -3 3 -8 12 -10 20 -10 44 -60 44 -84 -1
-8 -16 -19 -29 -25 -29 -6 0 -7 -4 -4 -10 3 -6 -1 -7 -9 -4 -9 3 -16 13 -16
21 0 8 -3 12 -8 9 -4 -2 -16 13 -26 35 -11 22 -24 36 -30 32 -6 -3 -8 -3 -4 2
4 4 -6 32 -21 61 -16 29 -26 55 -23 59 4 4 0 5 -8 3 -8 -1 -14 2 -15 7 0 6 -4
16 -8 23 -5 6 -5 12 0 12 4 0 0 5 -9 10 -9 6 -15 19 -13 30 2 11 1 19 -3 19
-19 -3 -32 2 -32 12 0 5 6 7 13 3 6 -4 9 -3 4 1 -9 10 -43 14 -54 6z m67 -155
c7 -17 21 -37 29 -44 9 -8 10 -11 4 -7 -20 10 -15 -6 9 -26 11 -11 17 -19 13
-19 -4 0 0 -9 9 -19 10 -11 15 -25 10 -32 -4 -8 -3 -10 4 -5 7 4 12 1 12 -7 0
-7 9 -23 21 -36 11 -12 18 -29 15 -37 -3 -8 -2 -13 3 -10 5 3 11 -3 14 -14 3
-11 1 -18 -4 -14 -5 3 -9 0 -9 -5 0 -6 6 -11 13 -12 9 0 9 -2 -1 -6 -10 -4
-10 -8 0 -21 7 -10 9 -14 4 -10 -9 8 -45 -24 -39 -34 2 -5 -1 -8 -8 -8 -7 0
-10 -3 -6 -6 6 -6 -1 -16 -33 -51 -8 -9 -14 -17 -13 -17 7 -2 -11 -46 -18 -46
-5 0 -9 -5 -9 -11 0 -6 -9 -23 -20 -39 -11 -15 -17 -30 -13 -34 3 -3 1 -6 -5
-6 -7 0 -12 -7 -12 -15 0 -8 -7 -15 -16 -15 -9 0 -12 -5 -8 -12 4 -7 3 -8 -4
-4 -7 4 -12 14 -12 22 0 9 -5 12 -12 8 -10 -5 -10 -4 -1 6 9 10 8 16 -3 27 -8
8 -12 19 -9 24 4 5 -1 9 -10 9 -11 0 -15 5 -11 15 3 8 2 15 -3 15 -4 0 -21 24
-36 53 -16 28 -34 55 -41 60 -7 4 -11 13 -8 21 3 7 -2 19 -11 26 -8 7 -15 19
-15 27 0 8 -3 12 -7 10 -5 -3 -8 5 -8 18 0 13 3 21 7 19 3 -2 9 9 13 26 4 16
10 30 15 30 4 0 14 15 21 33 7 17 20 37 29 44 8 7 11 13 6 13 -6 0 -1 7 10 15
10 8 15 15 11 15 -4 0 -2 10 5 23 7 12 11 26 10 30 -1 5 2 6 7 3 8 -5 24 23
26 46 0 4 9 14 20 21 24 18 46 6 65 -37z m-332 -218 c8 -57 4 -110 -8 -103 -6
3 -7 -1 -4 -9 3 -9 2 -16 -4 -16 -5 0 -13 -11 -16 -25 -4 -14 -11 -25 -17 -25
-6 0 -7 -4 -4 -10 3 -5 1 -10 -4 -10 -6 0 -10 -6 -8 -12 1 -7 -5 -12 -13 -10
-8 2 -12 1 -8 -3 4 -4 -3 -23 -14 -43 -11 -21 -30 -54 -40 -75 -11 -20 -24
-40 -29 -43 -5 -3 -7 -10 -4 -15 4 -5 2 -9 -3 -9 -11 0 -36 -51 -33 -69 1 -7
-2 -10 -8 -6 -18 10 -12 1 10 -18 20 -18 21 -18 14 4 -6 19 -5 20 8 8 8 -8 12
-18 9 -23 -3 -5 0 -6 7 -2 7 4 20 4 29 0 31 -13 41 -12 35 3 -5 12 -7 12 -14
1 -6 -9 -9 -9 -9 -1 0 6 3 14 8 17 11 7 43 -20 34 -30 -4 -4 1 -2 11 5 9 7 17
10 17 5 0 -5 8 0 16 11 16 20 16 20 9 -2 -6 -23 8 -32 20 -12 4 6 14 7 24 4
28 -12 46 -13 58 -3 7 5 17 7 24 3 6 -4 15 -1 20 6 7 11 9 10 9 -4 0 -10 5
-15 10 -12 6 4 8 10 5 15 -3 5 0 12 6 16 8 4 9 3 5 -4 -4 -7 -2 -12 4 -12 6 0
8 -5 4 -12 -4 -7 -3 -8 4 -4 6 4 9 14 6 24 -5 16 -5 16 6 0 11 -18 36 -26 25
-8 -3 6 1 7 10 4 12 -5 13 -10 4 -20 -6 -7 -8 -18 -4 -24 3 -5 1 -10 -5 -10
-6 0 -8 -4 -5 -10 3 -5 1 -10 -4 -10 -6 0 -11 -7 -11 -15 0 -8 -3 -15 -8 -15
-4 0 -16 -17 -27 -37 -24 -49 -46 -74 -56 -68 -4 3 -10 1 -14 -5 -3 -5 -11
-10 -16 -10 -6 0 -7 5 -3 11 5 8 1 8 -14 0 -14 -7 -23 -8 -27 -1 -4 6 -11 8
-16 4 -18 -10 -59 -12 -59 -1 0 5 -7 3 -17 -4 -13 -11 -17 -11 -21 -1 -3 10
-7 10 -18 1 -11 -9 -14 -9 -14 0 0 7 -5 9 -12 5 -19 -12 -58 -14 -58 -3 0 5
-5 9 -11 9 -5 0 -8 -4 -5 -8 3 -5 -1 -9 -9 -9 -8 0 -12 5 -8 10 3 5 -3 4 -14
-2 -14 -7 -24 -7 -33 2 -10 9 -11 9 -6 0 4 -7 2 -13 -3 -13 -6 0 -11 6 -11 13
0 8 -4 7 -10 -3 -9 -13 -10 -13 -10 0 0 13 -1 13 -10 0 -8 -13 -10 -13 -10 -1
0 12 -3 12 -12 3 -15 -15 -32 -16 -22 -1 4 7 -1 7 -16 -1 -18 -10 -24 -9 -31
1 -7 11 -9 11 -10 -1 0 -10 -3 -8 -9 5 -5 12 -4 24 4 30 6 6 12 17 14 25 2 8
7 16 12 18 5 2 7 9 4 16 -3 8 2 16 10 19 10 4 13 13 9 23 -4 12 -3 15 5 10 7
-4 13 -2 13 3 1 6 2 17 3 24 1 6 7 11 13 10 6 -1 9 6 5 19 -3 15 -2 19 7 14 7
-5 13 3 17 23 4 17 10 31 15 31 8 0 24 40 21 53 -1 5 2 6 8 2 5 -3 10 -2 10 4
0 5 7 17 16 25 8 9 11 16 4 16 -11 0 -4 11 35 52 11 11 13 17 5 13 -9 -5 -7 1
5 15 11 13 14 20 6 15 -10 -6 -12 -4 -7 4 5 7 15 10 23 6 14 -5 14 -3 2 12 -8
9 -9 14 -2 10 7 -5 14 2 19 15 4 13 17 39 30 59 13 20 20 40 17 43 -4 3 -1 6
6 6 7 0 9 5 6 10 -3 6 -3 10 2 10 4 0 14 14 22 30 7 17 27 37 45 45 17 7 31
14 32 14 0 1 1 -5 2 -11z m620 -1 c7 -5 10 -13 7 -18 -4 -5 -2 -9 4 -9 10 0
27 -38 23 -52 -1 -5 2 -8 6 -8 12 0 36 -51 33 -69 -1 -7 2 -10 8 -6 6 3 11 -1
11 -10 0 -9 4 -13 10 -10 6 3 7 -1 4 -9 -3 -9 -1 -16 5 -16 6 0 11 -7 11 -16
0 -9 5 -12 12 -8 7 4 8 3 4 -5 -4 -6 0 -24 10 -39 10 -15 17 -31 16 -35 -1 -4
5 -10 13 -13 8 -4 15 -14 15 -24 0 -10 7 -23 15 -30 8 -7 15 -19 15 -26 0 -8
5 -14 10 -14 6 0 10 -9 10 -20 0 -11 5 -20 10 -20 6 0 10 -7 10 -16 0 -9 5
-12 13 -8 7 5 7 1 -3 -12 -8 -10 -10 -16 -6 -12 11 10 39 -28 31 -41 -3 -5 0
-13 6 -17 8 -5 9 -3 4 6 -5 9 -4 11 3 6 7 -4 12 -15 12 -25 0 -10 6 -24 14
-31 8 -6 12 -18 9 -26 -3 -9 1 -14 12 -14 9 0 13 -4 10 -10 -3 -5 -2 -10 3
-10 5 0 12 -13 14 -28 4 -30 -11 -36 -41 -17 -9 5 -12 4 -8 -2 4 -6 -7 -10
-25 -11 -24 -1 -28 2 -18 8 8 6 10 10 4 10 -6 0 -14 -3 -17 -7 -12 -11 -57
-12 -57 -1 0 7 -5 6 -14 -1 -10 -8 -16 -9 -21 -1 -3 6 -11 7 -18 3 -16 -10
-58 -10 -63 -1 -3 5 -11 5 -17 1 -17 -10 -47 -11 -47 -1 0 5 -10 4 -21 -3 -16
-8 -20 -8 -14 1 6 9 2 9 -14 1 -16 -9 -21 -9 -21 0 0 8 -4 8 -15 -1 -8 -7 -15
-9 -15 -5 0 4 -7 2 -15 -5 -13 -11 -14 -10 -10 2 4 9 0 15 -9 15 -8 0 -13 -4
-10 -9 3 -4 -2 -8 -11 -8 -9 0 -13 5 -9 11 4 7 0 9 -14 5 -11 -4 -23 -2 -27 4
-3 6 -11 8 -16 5 -5 -3 -6 1 -3 9 4 9 -1 18 -10 22 -9 3 -13 10 -10 15 3 5 1
9 -5 9 -5 0 -11 10 -13 22 -2 13 -9 22 -16 20 -6 -1 -11 1 -10 5 1 5 -4 21
-11 37 -9 23 -9 31 1 38 11 7 5 12 -13 10 -3 -1 -6 5 -6 12 0 7 6 13 13 13 7
0 10 -5 7 -10 -4 -6 0 -8 10 -4 9 3 19 2 21 -2 8 -12 75 -5 93 11 12 9 15 9 9
1 -9 -16 25 -18 41 -2 13 13 58 -12 45 -26 -4 -4 3 -2 15 6 12 7 20 17 17 21
-3 4 2 5 11 1 13 -4 14 -7 3 -14 -11 -7 -10 -10 1 -21 10 -10 12 -10 7 0 -7
12 4 16 31 13 8 -1 10 5 6 16 -6 15 -5 16 9 3 9 -8 14 -18 12 -21 -2 -3 3 -6
11 -6 8 0 12 4 10 8 -3 3 6 9 20 11 22 5 24 3 13 -11 -10 -14 -9 -14 6 1 19
17 31 68 16 68 -5 0 -14 16 -21 34 -7 19 -16 33 -21 30 -5 -3 -7 -2 -6 3 4 12
-25 73 -34 73 -5 0 -8 6 -8 14 0 7 -7 19 -15 26 -9 7 -14 19 -11 26 2 7 -4 20
-15 30 -10 9 -19 26 -19 36 0 11 -4 16 -10 13 -9 -5 -12 1 -9 21 0 3 -9 14
-20 23 -31 27 -35 82 -8 104 21 16 21 17 2 11 -15 -4 -17 -3 -6 4 15 11 30 10
49 -1z m-77 -164 c5 -15 14 -21 21 -17 7 5 8 3 4 -5 -5 -7 0 -21 11 -33 12
-15 13 -19 3 -14 -8 4 -5 -1 8 -12 15 -14 18 -22 10 -25 -8 -3 -6 -6 5 -6 10
-1 16 -5 12 -10 -3 -5 -1 -12 5 -16 6 -4 8 -11 5 -16 -4 -5 -1 -9 4 -9 6 0 11
-8 11 -17 0 -9 3 -13 6 -10 8 8 44 -55 37 -65 -2 -5 1 -8 8 -8 7 0 9 -3 5 -7
-4 -5 -10 -7 -12 -5 -3 2 -13 -5 -22 -16 -9 -10 -14 -13 -9 -6 4 7 1 14 -8 18
-8 3 -15 1 -15 -5 0 -6 -5 -7 -11 -3 -20 12 -54 10 -65 -5 -9 -11 -12 -12 -19
-1 -6 9 -4 11 6 5 8 -5 11 -4 6 1 -13 14 -61 11 -73 -5 -9 -11 -12 -12 -19 -1
-6 9 -4 11 6 5 8 -5 11 -4 6 0 -16 18 -71 12 -90 -9 l-18 -21 11 23 c13 26 8
28 -16 5 -16 -16 -16 -16 -9 6 4 14 3 21 -2 18 -5 -4 -10 0 -10 8 0 8 5 11 10
8 5 -3 8 0 5 8 -4 13 0 20 28 52 5 7 17 26 24 44 8 17 18 29 23 26 4 -3 7 1 6
8 -2 8 8 32 22 54 14 22 28 48 32 58 4 10 11 15 17 12 6 -3 7 1 4 10 -5 11 -2
14 11 9 9 -4 21 -18 26 -31z m-478 10 c-3 -7 2 -13 12 -13 9 0 13 -4 10 -10
-3 -5 -1 -10 4 -10 6 0 11 -5 11 -12 0 -6 8 -20 18 -31 9 -12 11 -17 3 -12
-14 8 27 -55 44 -67 5 -4 6 -10 2 -14 -4 -4 1 -13 11 -21 11 -10 12 -12 2 -8
-8 4 -3 -5 12 -18 18 -17 23 -27 15 -30 -7 -3 -5 -6 5 -6 9 -1 20 -5 23 -11 4
-6 -1 -7 -12 -3 -17 6 -17 6 0 -14 12 -14 15 -23 7 -28 -6 -3 -9 -1 -8 6 2 8
-8 14 -24 14 -16 1 -28 -3 -28 -7 0 -4 -5 -8 -11 -8 -5 0 -8 4 -4 9 6 10 -27
7 -45 -4 -6 -3 -10 -1 -10 4 0 6 -5 11 -11 11 -5 0 -7 -5 -3 -11 4 -7 -1 -7
-15 1 -17 9 -26 9 -37 -1 -8 -7 -14 -7 -14 -1 0 16 -50 9 -51 -8 0 -13 -1 -13
-7 0 -4 8 -20 16 -35 17 -15 1 -25 -2 -22 -7 3 -5 0 -12 -6 -16 -8 -4 -9 -3
-5 4 4 7 2 12 -4 12 -6 0 -9 4 -6 9 4 5 0 12 -6 15 -10 3 -9 8 3 18 16 14 33
48 31 61 -1 4 3 7 8 7 6 0 10 7 10 15 0 8 4 15 9 15 5 0 13 10 17 23 3 12 14
30 23 41 9 10 16 21 15 25 -2 14 45 78 59 78 8 0 13 -6 10 -14z m142 -303 c-3
-5 -12 -10 -18 -10 -7 0 -6 4 3 10 19 12 23 12 15 0z m-161 -18 c3 -5 -1 -9
-9 -9 -8 0 -12 4 -9 9 3 4 7 8 9 8 2 0 6 -4 9 -8z m394 -27 c-3 -3 -9 2 -12
12 -6 14 -5 15 5 6 7 -7 10 -15 7 -18z m-457 -8 c-10 -9 -11 -8 -5 6 3 10 9
15 12 12 3 -3 0 -11 -7 -18z m295 -42 c-4 -12 -2 -13 13 -6 15 9 18 7 17 -12
-1 -13 4 -21 12 -19 6 1 11 -1 10 -5 -3 -15 32 -84 40 -79 5 3 9 -2 9 -10 0
-8 -13 -22 -29 -30 -19 -10 -28 -11 -28 -3 0 8 -4 8 -15 -1 -12 -10 -15 -10
-15 1 0 10 -3 10 -12 1 -8 -8 -17 -8 -31 -1 -14 8 -18 8 -13 0 4 -6 2 -11 -3
-11 -6 0 -11 6 -11 13 0 8 -4 7 -10 -3 -7 -11 -10 -11 -10 -2 0 7 -5 10 -12 6
-7 -4 -8 -3 -4 4 4 7 9 22 11 34 3 13 12 29 22 36 9 6 13 12 8 12 -4 0 0 9 10
20 10 11 15 20 11 20 -3 0 1 11 10 25 18 28 29 33 20 10z"/>
<path d="M1067 483 c-13 -13 -7 -21 13 -16 11 3 17 9 14 14 -6 11 -18 12 -27
2z"/>
<path d="M910 471 c0 -6 4 -13 10 -16 6 -3 7 1 4 9 -7 18 -14 21 -14 7z"/>
</g>
</svg>
